<svg width="25" height="25" viewBox="0 0 44 43" fill="none" xmlns="http://www.w3.org/2000/svg">
    <mask id="mask0_680_43" style="mask-type:alpha" maskUnits="userSpaceOnUse" x="0" y="0" width="44" height="43">
        <rect width="43.0562" height="42.0341" fill="#D9D9D9"/>
    </mask>
    <g mask="url(#mask0_680_43)">
        <path d="M21.528 38.5312C19.0462 38.5312 16.714 38.0714 14.5313 37.1519C12.3486 36.2325 10.45 34.9846 8.83536 33.4083C7.22075 31.832 5.94252 29.9784 5.00067 27.8475C4.05882 25.7166 3.58789 23.4398 3.58789 21.017C3.58789 18.5942 4.05882 16.3174 5.00067 14.1865C5.94252 12.0556 7.22075 10.202 8.83536 8.62571C10.45 7.04943 12.3486 5.80155 14.5313 4.88205C16.714 3.96256 19.0462 3.50281 21.528 3.50281C24.0097 3.50281 26.3419 3.96256 28.5246 4.88205C30.7073 5.80155 32.6059 7.04943 34.2206 8.62571C35.8352 10.202 37.1134 12.0556 38.0552 14.1865C38.9971 16.3174 39.468 18.5942 39.468 21.017V23.5566C39.468 25.2788 38.8625 26.7456 37.6516 27.957C36.4406 29.1684 34.9531 29.7741 33.189 29.7741C32.1425 29.7741 31.1558 29.5552 30.2289 29.1173C29.302 28.6795 28.5246 28.0519 27.8967 27.2345C27.0296 28.0811 26.0503 28.7159 24.959 29.1392C23.8676 29.5625 22.724 29.7741 21.528 29.7741C19.0462 29.7741 16.9308 28.9203 15.1817 27.2126C13.4325 25.505 12.5579 23.4398 12.5579 21.017C12.5579 18.5942 13.4325 16.529 15.1817 14.8214C16.9308 13.1137 19.0462 12.2599 21.528 12.2599C24.0097 12.2599 26.1251 13.1137 27.8743 14.8214C29.6234 16.529 30.498 18.5942 30.498 21.017V23.5566C30.498 24.3155 30.7521 24.9577 31.2604 25.4831C31.7687 26.0085 32.4116 26.2713 33.189 26.2713C33.9664 26.2713 34.6093 26.0085 35.1176 25.4831C35.6259 24.9577 35.88 24.3155 35.88 23.5566V21.017C35.88 17.1055 34.4897 13.7924 31.7089 11.0777C28.9282 8.363 25.5346 7.00565 21.528 7.00565C17.5213 7.00565 14.1277 8.363 11.347 11.0777C8.56626 13.7924 7.1759 17.1055 7.1759 21.017C7.1759 24.9285 8.56626 28.2416 11.347 30.9563C14.1277 33.671 17.5213 35.0284 21.528 35.0284H30.498V38.5312H21.528ZM21.528 26.2713C23.023 26.2713 24.2937 25.7604 25.3402 24.7388C26.3867 23.7171 26.91 22.4765 26.91 21.017C26.91 19.5575 26.3867 18.3169 25.3402 17.2952C24.2937 16.2736 23.023 15.7627 21.528 15.7627C20.0329 15.7627 18.7622 16.2736 17.7157 17.2952C16.6692 18.3169 16.1459 19.5575 16.1459 21.017C16.1459 22.4765 16.6692 23.7171 17.7157 24.7388C18.7622 25.7604 20.0329 26.2713 21.528 26.2713Z" fill="#1C1B1F"/>
    </g>
</svg>
