<svg width="404" height="350" viewBox="0 0 404 350" fill="none" xmlns="http://www.w3.org/2000/svg">    <rect width="404" height="350" rx="10" fill="url(#paint0_radial_0_1)"/>    <path d="M201.9 75C146.7 75 102 119.8 102 175C102 230.2 146.7 275 201.9 275C257.2 275 302 230.2 302 175C302 119.8 257.2 75 201.9 75ZM202 255C157.8 255 122 219.2 122 175C122 130.8 157.8 95 202 95C246.2 95 282 130.8 282 175C282 219.2 246.2 255 202 255ZM237 165C245.3 165 252 158.3 252 150C252 141.7 245.3 135 237 135C228.7 135 222 141.7 222 150C222 158.3 228.7 165 237 165ZM167 165C175.3 165 182 158.3 182 150C182 141.7 175.3 135 167 135C158.7 135 152 141.7 152 150C152 158.3 158.7 165 167 165ZM202 230C225.3 230 245.1 215.4 253.1 195H150.9C158.9 215.4 178.7 230 202 230Z" fill="#FFBB61"/>    <defs>        <radialGradient id="paint0_radial_0_1" cx="0" cy="0" r="1" gradientUnits="userSpaceOnUse" gradientTransform="translate(202 175) scale(294 339.36)">            <stop stop-color="white"/>            <stop offset="1" stop-color="#FFE4C0"/>        </radialGradient>    </defs></svg>