<svg width="313" height="219" viewBox="0 0 313 219" fill="none" xmlns="http://www.w3.org/2000/svg">
    <rect width="313" height="219" fill="url(#paint0_linear_0_1)"/>
    <path d="M63.8 106H89.72V113.2H63.8V122.2H53V97H94.76V104.2H63.8V106Z" fill="url(#paint1_linear_0_1)"/>
    <path d="M63.8 106H89.72V113.2H63.8V122.2H53V97H94.76V104.2H63.8V106Z" fill="white"/>
    <path d="M97.6484 97H108.448V122.2H97.6484V97Z" fill="url(#paint2_linear_0_1)"/>
    <path d="M97.6484 97H108.448V122.2H97.6484V97Z" fill="white"/>
    <path d="M141.593 97C145.289 97 148.397 97.372 150.917 98.116C153.461 98.86 155.513 100.012 157.073 101.572C158.657 103.108 159.797 105.076 160.493 107.476C161.189 109.876 161.537 112.744 161.537 116.08V122.2H150.737V116.08C150.737 113.776 150.473 111.856 149.945 110.32C149.417 108.784 148.601 107.572 147.497 106.684C146.393 105.772 144.989 105.136 143.285 104.776C141.605 104.392 139.601 104.2 137.273 104.2H123.881V122.2H113.081V97H141.593Z"
          fill="url(#paint3_linear_0_1)"/>
    <path d="M141.593 97C145.289 97 148.397 97.372 150.917 98.116C153.461 98.86 155.513 100.012 157.073 101.572C158.657 103.108 159.797 105.076 160.493 107.476C161.189 109.876 161.537 112.744 161.537 116.08V122.2H150.737V116.08C150.737 113.776 150.473 111.856 149.945 110.32C149.417 108.784 148.601 107.572 147.497 106.684C146.393 105.772 144.989 105.136 143.285 104.776C141.605 104.392 139.601 104.2 137.273 104.2H123.881V122.2H113.081V97H141.593Z"
          fill="white"/>
    <path d="M165.888 122.2V97H193.176C195.84 97 198.384 97.276 200.808 97.828C203.256 98.38 205.404 99.196 207.252 100.276C209.1 101.332 210.564 102.652 211.644 104.236C212.748 105.796 213.288 107.584 213.264 109.6C213.264 111.616 212.712 113.404 211.608 114.964C210.528 116.524 209.052 117.844 207.18 118.924C205.332 119.98 203.196 120.796 200.772 121.372C198.348 121.924 195.816 122.2 193.176 122.2H165.888ZM176.688 104.2V115H195.012C195.756 115 196.464 114.904 197.136 114.712C197.808 114.496 198.396 114.172 198.9 113.74C199.404 113.308 199.8 112.756 200.088 112.084C200.4 111.388 200.556 110.572 200.556 109.636C200.556 108.7 200.4 107.896 200.088 107.224C199.8 106.528 199.404 105.964 198.9 105.532C198.396 105.076 197.808 104.74 197.136 104.524C196.464 104.308 195.756 104.2 195.012 104.2H176.688Z"
          fill="url(#paint4_linear_0_1)"/>
    <path d="M165.888 122.2V97H193.176C195.84 97 198.384 97.276 200.808 97.828C203.256 98.38 205.404 99.196 207.252 100.276C209.1 101.332 210.564 102.652 211.644 104.236C212.748 105.796 213.288 107.584 213.264 109.6C213.264 111.616 212.712 113.404 211.608 114.964C210.528 116.524 209.052 117.844 207.18 118.924C205.332 119.98 203.196 120.796 200.772 121.372C198.348 121.924 195.816 122.2 193.176 122.2H165.888ZM176.688 104.2V115H195.012C195.756 115 196.464 114.904 197.136 114.712C197.808 114.496 198.396 114.172 198.9 113.74C199.404 113.308 199.8 112.756 200.088 112.084C200.4 111.388 200.556 110.572 200.556 109.636C200.556 108.7 200.4 107.896 200.088 107.224C199.8 106.528 199.404 105.964 198.9 105.532C198.396 105.076 197.808 104.74 197.136 104.524C196.464 104.308 195.756 104.2 195.012 104.2H176.688Z"
          fill="white"/>
    <path d="M239.174 112.012V122.2H228.374V112.012L208.25 97H223.082L233.774 104.956L244.466 97H259.298L239.174 112.012Z"
          fill="url(#paint5_linear_0_1)"/>
    <path d="M239.174 112.012V122.2H228.374V112.012L208.25 97H223.082L233.774 104.956L244.466 97H259.298L239.174 112.012Z"
          fill="white"/>
    <defs>
        <linearGradient id="paint0_linear_0_1" x1="-57.5558" y1="16.1369" x2="382.827" y2="74.8938"
                        gradientUnits="userSpaceOnUse">
            <stop offset="0.15" stop-color="#3E7BD8"/>
            <stop offset="0.53" stop-color="#FFBB61"/>
            <stop offset="1" stop-color="#95CC7D"/>
        </linearGradient>
        <linearGradient id="paint1_linear_0_1" x1="53" y1="143.2" x2="322.025" y2="143.2"
                        gradientUnits="userSpaceOnUse">
            <stop stop-color="#3E7BD8"/>
            <stop offset="0.515" stop-color="#FFBB61"/>
            <stop offset="0.915" stop-color="#95CC7D"/>
        </linearGradient>
        <linearGradient id="paint2_linear_0_1" x1="53" y1="143.2" x2="322.025" y2="143.2"
                        gradientUnits="userSpaceOnUse">
            <stop stop-color="#3E7BD8"/>
            <stop offset="0.515" stop-color="#FFBB61"/>
            <stop offset="0.915" stop-color="#95CC7D"/>
        </linearGradient>
        <linearGradient id="paint3_linear_0_1" x1="53" y1="143.2" x2="322.025" y2="143.2"
                        gradientUnits="userSpaceOnUse">
            <stop stop-color="#3E7BD8"/>
            <stop offset="0.515" stop-color="#FFBB61"/>
            <stop offset="0.915" stop-color="#95CC7D"/>
        </linearGradient>
        <linearGradient id="paint4_linear_0_1" x1="53" y1="143.2" x2="322.025" y2="143.2"
                        gradientUnits="userSpaceOnUse">
            <stop stop-color="#3E7BD8"/>
            <stop offset="0.515" stop-color="#FFBB61"/>
            <stop offset="0.915" stop-color="#95CC7D"/>
        </linearGradient>
        <linearGradient id="paint5_linear_0_1" x1="53" y1="143.2" x2="322.025" y2="143.2"
                        gradientUnits="userSpaceOnUse">
            <stop stop-color="#3E7BD8"/>
            <stop offset="0.515" stop-color="#FFBB61"/>
            <stop offset="0.915" stop-color="#95CC7D"/>
        </linearGradient>
    </defs>
</svg>

