<svg width="313" height="219" viewBox="0 0 313 219" fill="none" xmlns="http://www.w3.org/2000/svg">
    <rect width="313" height="219" fill="white"/>
    <path d="M63.8 104V105.8H89.72V113H63.8V122H53V96.8H94.76V104H63.8ZM97.6484 122V96.8H108.448V122H97.6484ZM141.593 96.8C156.353 96.8 161.537 102.56 161.537 115.88V122H150.737V115.88C150.737 106.628 146.597 104 137.273 104H123.881V122H113.081V96.8H141.593ZM193.176 122H165.888V96.8H193.176C203.832 96.8 213.336 101.3 213.264 109.4C213.3 117.428 203.76 122 193.176 122ZM195.012 104H176.688V114.8H195.012C198 114.8 200.556 113.216 200.556 109.436C200.556 105.656 197.964 104 195.012 104ZM259.298 96.8L239.174 111.812V122H228.374V111.812L208.25 96.8H223.082L233.774 104.756L244.466 96.8H259.298Z"
          fill="url(#paint0_linear_611_10)"/>
    <defs>
        <linearGradient id="paint0_linear_611_10" x1="53" y1="153.4" x2="322.025" y2="153.4"
                        gradientUnits="userSpaceOnUse">
            <stop stop-color="#3E7BD8"/>
            <stop offset="0.515" stop-color="#FFBB61"/>
            <stop offset="0.915" stop-color="#95CC7D"/>
        </linearGradient>
    </defs>
</svg>
