<svg width="212" height="32" viewBox="0 0 212 32" fill="none" xmlns="http://www.w3.org/2000/svg">
<path d="M10.8 10.8H36.72V18H10.8V27H0V1.8H41.76V9H10.8V10.8ZM44.6484 1.8H55.4484V27H44.6484V1.8ZM88.5932 1.8C92.2892 1.8 95.3972 2.172 97.9172 2.916C100.461 3.66 102.513 4.812 104.073 6.372C105.657 7.908 106.797 9.876 107.493 12.276C108.189 14.676 108.537 17.544 108.537 20.88V27H97.7372V20.88C97.7372 18.576 97.4732 16.656 96.9452 15.12C96.4172 13.584 95.6012 12.372 94.4972 11.484C93.3932 10.572 91.9892 9.936 90.2852 9.576C88.6052 9.192 86.6012 9 84.2732 9H70.8812V27H60.0812V1.8H88.5932ZM112.888 27V1.8H140.176C142.84 1.8 145.384 2.076 147.808 2.628C150.256 3.18 152.404 3.996 154.252 5.076C156.1 6.132 157.564 7.452 158.644 9.036C159.748 10.596 160.288 12.384 160.264 14.4C160.264 16.416 159.712 18.204 158.608 19.764C157.528 21.324 156.052 22.644 154.18 23.724C152.332 24.78 150.196 25.596 147.772 26.172C145.348 26.724 142.816 27 140.176 27H112.888ZM123.688 9V19.8H142.012C142.756 19.8 143.464 19.704 144.136 19.512C144.808 19.296 145.396 18.972 145.9 18.54C146.404 18.108 146.8 17.556 147.088 16.884C147.4 16.188 147.556 15.372 147.556 14.436C147.556 13.5 147.4 12.696 147.088 12.024C146.8 11.328 146.404 10.764 145.9 10.332C145.396 9.876 144.808 9.54 144.136 9.324C143.464 9.108 142.756 9 142.012 9H123.688ZM186.174 16.812V27H175.374V16.812L155.25 1.8H170.082L180.774 9.756L191.466 1.8H206.298L186.174 16.812Z" fill="url(#paint0_linear_222_17)"/>
<defs>
<linearGradient id="paint0_linear_222_17" x1="0" y1="16" x2="212" y2="16" gradientUnits="userSpaceOnUse">
<stop stop-color="#3E7BD8"/>
<stop offset="0.515" stop-color="#FFBB61"/>
<stop offset="0.915" stop-color="#95CC7D"/>
</linearGradient>
</defs>
</svg>
