<svg width="400" height="400" viewBox="0 0 450 450" fill="none" xmlns="http://www.w3.org/2000/svg">
    <rect width="450" height="450" rx="10" fill="url(#paint0_linear_714_3)"/>
    <path fill-rule="evenodd" clip-rule="evenodd" d="M225 92.9005C201.213 92.8963 177.841 98.9293 157.216 110.397C136.592 121.866 119.436 138.368 107.462 158.256C95.4885 178.145 89.1148 200.725 88.9775 223.743C88.8402 246.76 94.9442 269.41 106.68 289.431C114.613 279.456 124.809 271.379 136.483 265.825C148.156 260.271 160.992 257.39 174 257.403H276C289.008 257.39 301.844 260.271 313.517 265.825C325.191 271.379 335.387 279.456 343.32 289.431C355.056 269.41 361.16 246.76 361.023 223.743C360.885 200.725 354.512 178.145 342.538 158.256C330.564 138.368 313.408 121.866 292.784 110.397C272.159 98.9293 248.787 92.8963 225 92.9005ZM360.031 324.454C382.76 295.781 395.055 260.64 395 224.502C395 133.648 318.891 60 225 60C131.109 60 55.0002 133.648 55.0002 224.502C54.9441 260.64 67.2386 295.781 89.9692 324.454L89.8842 324.75L95.9191 331.544C111.863 349.582 131.66 364.06 153.944 373.98C176.228 383.9 200.471 389.026 225 389.005C259.465 389.066 293.126 378.936 321.475 359.97C333.561 351.89 344.52 342.336 354.081 331.544L360.116 324.75L360.031 324.454ZM225 125.801C211.474 125.801 198.502 131 188.938 140.255C179.373 149.51 174 162.063 174 175.152C174 188.24 179.373 200.793 188.938 210.048C198.502 219.303 211.474 224.502 225 224.502C238.526 224.502 251.498 219.303 261.062 210.048C270.627 200.793 276 188.24 276 175.152C276 162.063 270.627 149.51 261.062 140.255C251.498 131 238.526 125.801 225 125.801Z" fill="white"/>
    <defs>
        <linearGradient id="paint0_linear_714_3" x1="-100.804" y1="220.373" x2="540.78" y2="221.982" gradientUnits="userSpaceOnUse">
            <stop stop-color="#3E7BD8"/>
            <stop offset="0.514392" stop-color="#FFBB61"/>
            <stop offset="1" stop-color="#95CC7D"/>
        </linearGradient>
    </defs>
</svg>
