<svg width="404" height="350" viewBox="0 0 404 350" fill="none" xmlns="http://www.w3.org/2000/svg">	<rect width="404" height="350" rx="10" fill="url(#paint0_radial_0_1)"/>	<path d="M253.156 164.95H302C300.392 148.769 294.865 133.694 286.523 120.729C269.136 129.071 256.473 145.352 253.156 164.95Z" fill="#95CC7D"/>	<path d="M150.844 164.95C147.528 145.352 134.864 129.071 117.477 120.729C109.136 133.694 103.608 148.769 102 164.95H150.844Z" fill="#95CC7D"/>	<path d="M232.854 164.95C236.07 138.92 251.748 116.809 273.658 104.648C257.577 88.2663 236.07 77.4121 212.05 75V164.95H232.854Z" fill="#95CC7D"/>	<path d="M171.145 164.95H191.949V75C167.929 77.4121 146.321 88.2663 130.341 104.648C152.251 116.809 167.929 138.92 171.145 164.95Z" fill="#95CC7D"/>	<path d="M232.854 185.05H212.05V275C236.07 272.588 257.678 261.733 273.658 245.351C251.748 233.191 236.07 211.08 232.854 185.05Z" fill="#95CC7D"/>	<path d="M117.477 229.271C134.764 220.929 147.528 204.547 150.844 185.05H102C103.608 201.231 109.136 216.306 117.477 229.271Z" fill="#95CC7D"/>	<path d="M253.156 185.05C256.473 204.648 269.136 220.929 286.523 229.271C294.865 216.306 300.392 201.231 302 185.05H253.156Z" fill="#95CC7D"/>	<path d="M171.145 185.05C167.929 211.08 152.251 233.191 130.341 245.351C146.422 261.733 167.929 272.588 191.949 275V185.05H171.145Z" fill="#95CC7D"/>	<defs>		<radialGradient id="paint0_radial_0_1" cx="0" cy="0" r="1" gradientUnits="userSpaceOnUse" gradientTransform="translate(202 175) scale(284 327.817)">			<stop stop-color="white"/>			<stop offset="1" stop-color="#D5EBCB"/>		</radialGradient>	</defs></svg>