<svg width="25" height="25" viewBox="0 0 37 34" fill="none" xmlns="http://www.w3.org/2000/svg">
    <path d="M18.5671 34C28.3104 34 36.2089 26.3888 36.2089 17C36.2089 7.61116 28.3104 0 18.5671 0C8.82379 0 0.925293 7.61116 0.925293 17C0.925293 26.3888 8.82379 34 18.5671 34Z" fill="url(#paint0_linear_308_99)"/>
    <path fill-rule="evenodd" clip-rule="evenodd" d="M8.91132 16.8206C14.0543 14.6614 17.4837 13.2379 19.1996 12.5502C24.0989 10.5865 25.117 10.2454 25.7805 10.2341C25.9265 10.2317 26.2528 10.2665 26.4641 10.4318C26.6426 10.5713 26.6917 10.7598 26.7152 10.8922C26.7387 11.0245 26.768 11.3259 26.7447 11.5614C26.4792 14.2495 25.3304 20.7728 24.746 23.7835C24.4987 25.0575 24.0117 25.4846 23.5403 25.5264C22.5158 25.6173 21.7379 24.874 20.7456 24.2472C19.1929 23.2664 18.3157 22.6559 16.8086 21.6988C15.0668 20.5927 16.1959 19.9848 17.1885 18.9913C17.4483 18.7313 21.9623 14.7749 22.0496 14.416C22.0605 14.3711 22.0707 14.2038 21.9675 14.1155C21.8644 14.0271 21.7121 14.0573 21.6023 14.0814C21.4465 14.1154 18.9661 15.6953 14.1609 18.8209C13.4568 19.2868 12.8191 19.5138 12.2477 19.5019C11.6178 19.4888 10.4061 19.1587 9.50532 18.8766C8.40051 18.5305 7.52242 18.3475 7.59888 17.7598C7.63871 17.4537 8.07619 17.1406 8.91132 16.8206Z" fill="white"/>
    <defs>
        <linearGradient id="paint0_linear_308_99" x1="1765.1" y1="0" x2="1765.1" y2="3374.78" gradientUnits="userSpaceOnUse">
            <stop stop-color="#2AABEE"/>
            <stop offset="1" stop-color="#229ED9"/>
        </linearGradient>
    </defs>
</svg>
