<svg width="25" height="25" viewBox="0 0 36 34" fill="none" xmlns="http://www.w3.org/2000/svg">
    <mask id="mask0_308_97" style="mask-type:luminance" maskUnits="userSpaceOnUse" x="0" y="0" width="36" height="34">
        <path d="M35.1086 0H0.174316V33.6634H35.1086V0Z" fill="white"/>
    </mask>
    <g mask="url(#mask0_308_97)">
        <path d="M0.174316 16.1584C0.174316 8.54127 0.174316 4.7327 2.63 2.36635C5.08569 0 9.03804 0 16.9428 0H18.3401C26.2448 0 30.1972 0 32.6529 2.36635C35.1086 4.7327 35.1086 8.54127 35.1086 16.1584V17.505C35.1086 25.1221 35.1086 28.9307 32.6529 31.297C30.1972 33.6634 26.2448 33.6634 18.3401 33.6634H16.9428C9.03804 33.6634 5.08569 33.6634 2.63 31.297C0.174316 28.9307 0.174316 25.1221 0.174316 17.505V16.1584Z" fill="#0077FF"/>
        <path d="M18.7626 24.2518C10.8005 24.2518 6.25906 18.9919 6.06982 10.2394H10.0582C10.1892 16.6635 13.1294 19.3846 15.4583 19.9456V10.2394H19.2139V15.7798C21.5137 15.5413 23.9297 13.0166 24.7449 10.2394H28.5004C27.8745 13.6618 25.2544 16.1866 23.3913 17.2245C25.2544 18.0661 28.2385 20.2682 29.3739 24.2518H25.2399C24.352 21.5867 22.1396 19.5248 19.2139 19.2443V24.2518H18.7626Z" fill="white"/>
    </g>
</svg>
